# xmcd CD database file
#
# Track frame offsets:
#	150
#	22507
#	44785
#	67147
#
# Disc length: 1189 seconds
#
# Revision: 0
# Processed by: cddbd v1.5.1PL0 Copyright (c) Steve Scherf et al.
# Submitted via: CDex 1.51
#
DISCID=3004a304
DTITLE=Whoops - ジーニー
DYEAR=1999
DGENRE=General Pop
TTITLE0=ジーニー
TTITLE1=忘れないよ‥
TTITLE2=ジーニー(カラオケ)
TTITLE3=忘れないよ‥(カラオケ)
EXTD=YEAR: 1999
EXTT0=
EXTT1=
EXTT2=
EXTT3=
PLAYORDER=
